<svg xmlns="http://www.w3.org/2000/svg" width="300" height="184" viewBox="0 0 600 368"><rect x="0" y="0" width="600" height="368" fill="white"></rect><g transform="translate(40.129999999999995,53.57499999999999)"><g transform="translate(230.46,0)"><circle cx="31" cy="13" r="11" fill="#B56252"></circle></g><g transform="translate(307.28000000000003,110.74)"><rect x="1" y="10.5" width="52" height="6" rx="3" fill="#3D7FA6"></rect></g><g transform="translate(0,110.74)"><circle cx="31" cy="13" r="11" fill="#3D7FA6"></circle></g><g transform="translate(384.1,166.10999999999999)"><g stroke="gray" stroke-width="3"><path fill="white" d="M26.5 4.5 a11 11 0 1 0 0 17 "></path><path fill="#7E756D" d="M26.5 4.5 a11 11 0 1 1 0 17 "></path><path fill="#7E756D" d="M26.5 4.5 a11 11 0 0 0 0 17 a11 11 0 0 0 0 -17 Z"></path></g></g><g transform="translate(230.46,221.48)"><rect x="1" y="10.5" width="52" height="6" rx="3" fill="#F6A035"></rect></g><g transform="translate(153.64000000000001,166.10999999999999)"><g stroke="gray" stroke-width="3"><path fill="white" d="M26.5 4.5 a11 11 0 1 0 0 17 "></path><path fill="#3D7FA6" d="M26.5 4.5 a11 11 0 1 1 0 17 "></path><path fill="#3D7FA6" d="M26.5 4.5 a11 11 0 0 0 0 17 a11 11 0 0 0 0 -17 Z"></path></g></g><g transform="translate(153.64000000000001,221.48)"><circle cx="31" cy="13" r="11" fill="#EFC637"></circle></g><g transform="translate(307.28000000000003,166.10999999999999)"><g stroke="gray" stroke-width="3"><path fill="#7E756D" d="M26.5 4.5 a11 11 0 1 0 0 17 "></path><path fill="white" d="M26.5 4.5 a11 11 0 1 1 0 17 "></path><path fill="#7E756D" d="M26.5 4.5 a11 11 0 0 0 0 17 a11 11 0 0 0 0 -17 Z"></path></g></g><g transform="translate(76.82000000000001,110.74)"><rect x="1" y="10.5" width="52" height="6" rx="3" fill="#3D7FA6"></rect></g><g transform="translate(0,166.10999999999999)"><circle cx="31" cy="13" r="11" fill="#3D7FA6"></circle></g><g transform="translate(460.92,166.10999999999999)"><rect x="4" y="3" rx="1" ry="1" width="20" height="20" fill="#666"></rect></g><g transform="translate(307.28000000000003,0)"><rect x="1" y="10.5" width="52" height="6" rx="3" fill="#B56252"></rect></g><g transform="translate(230.46,110.74)"><circle cx="31" cy="13" r="11" fill="#3D7FA6"></circle></g></g></svg>