<svg xmlns="http://www.w3.org/2000/svg" width="300" height="184" viewBox="0 0 600 368"><rect x="0" y="0" width="600" height="368" fill="white"></rect><g transform="translate(10,136.63)"><g transform="translate(76.82000000000001,0)"><rect x="1" y="10.5" width="52" height="6" rx="3" fill="#8BC2CA"></rect></g><g transform="translate(0,0)"><circle cx="31" cy="13" r="11" fill="#8BC2CA"></circle></g><g transform="translate(76.82000000000001,55.37)"><rect x="1" y="10.5" width="52" height="6" rx="3" fill="#845578"></rect></g><g transform="translate(153.64000000000001,0)"><g fill="#EFC637" stroke="#EFC637"><rect x="12" y="1" width="23" height="6" rx="1" ry="1"></rect><rect x="19.666666666666668" y="10" width="23" height="6" rx="1" ry="1"></rect><rect x="12" y="19" width="23" height="6" rx="1" ry="1"></rect></g></g><g transform="translate(0,55.37)"><circle cx="31" cy="13" r="11" fill="#845578"></circle></g><g transform="translate(230.46,0)"><rect x="1" y="10.5" width="52" height="6" rx="3" fill="#EFC637"></rect></g><g transform="translate(307.28000000000003,0)"><g fill="#EFC637" stroke="#EFC637"><rect x="15" y="2" width="5" height="23" rx="1" ry="1"></rect><rect x="24" y="2" width="5" height="5" rx="1" ry="1"></rect><rect x="33" y="2" width="5" height="5" rx="1" ry="1"></rect></g></g><g transform="translate(384.1,0)"><rect x="1" y="10.5" width="52" height="6" rx="3" fill="#EFC637"></rect></g><g transform="translate(614.5600000000001,0)"><rect x="4" y="3" rx="1" ry="1" width="20" height="20" fill="#666"></rect></g><g transform="translate(460.92,0)"><g fill="#EFC637" stroke="#EFC637"><rect x="10" y="2" width="5" height="23" rx="1" ry="1"></rect><rect x="19" y="2" width="5" height="23" rx="1" ry="1"></rect><rect x="28" y="2" width="5" height="5" rx="1" ry="1"></rect><rect x="37" y="2" width="5" height="5" rx="1" ry="1"></rect></g></g><g transform="translate(537.74,0)"><rect x="1" y="10.5" width="52" height="6" rx="3" fill="#EFC637"></rect></g></g></svg>